<svg xmlns="http://www.w3.org/2000/svg" viewBox="0 0 1200 800">
  <!-- 스타일 정의 -->
  <style>
    .frame { fill: #f8f9fa; stroke: #333; stroke-width: 2; }
    .header { fill: #e9ecef; stroke: #333; stroke-width: 1; }
    .footer { fill: #e9ecef; stroke: #333; stroke-width: 1; }
    .section { fill: #ffffff; stroke: #ddd; stroke-width: 1; }
    .button { fill: #4dabf7; stroke: #339af0; stroke-width: 1; rx: 5; ry: 5; }
    .cancel-button { fill: #f1f3f5; stroke: #adb5bd; stroke-width: 1; rx: 5; ry: 5; }
    .search { fill: #ffffff; stroke: #333; stroke-width: 1; rx: 5; ry: 5; }
    .marker { fill: #ff6b6b; stroke: #fa5252; stroke-width: 1; }
    .list-item { fill: #ffffff; stroke: #ddd; stroke-width: 1; }
    .text { font-family: Arial, sans-serif; }
    .title { font-size: 24px; font-weight: bold; }
    .subtitle { font-size: 18px; }
    .label { font-size: 14px; }
    .small { font-size: 12px; }
    .icon { font-size: 18px; font-family: "FontAwesome", Arial; }
    .map { fill: #e9ecef; stroke: #ced4da; stroke-width: 1; }
    .rating { fill: #ffd43b; stroke: #fab005; stroke-width: 1; }
    .gray-bg { fill: #f1f3f5; }
    .highlight { fill: #d0ebff; }
    .chart { fill: #4dabf7; stroke: #339af0; stroke-width: 1; }
    .navbar { fill: #343a40; stroke: none; }
    .navbar-text { fill: #ffffff; }
    .sidebar { fill: #f8f9fa; stroke: #dee2e6; stroke-width: 1; }
    .form-check { fill: #dee2e6; stroke: #adb5bd; stroke-width: 1; }
    .form-check-active { fill: #4dabf7; stroke: #339af0; stroke-width: 1; }
    .switch-track { fill: #dee2e6; stroke: #adb5bd; stroke-width: 1; rx: 10; ry: 10; }
    .switch-track-active { fill: #4dabf7; stroke: #339af0; stroke-width: 1; rx: 10; ry: 10; }
    .switch-thumb { fill: #ffffff; stroke: #adb5bd; stroke-width: 1; rx: 10; ry: 10; }
  </style>

  <!-- 페이지 제목 -->
  <text x="600" y="40" text-anchor="middle" class="text title">8. 알림 설정 (alert.jsp)</text>
    
  <!-- 프레임 -->
  <rect x="50" y="70" width="1100" height="670" class="frame" />
    
  <!-- 상단 네비게이션 바 -->
  <rect x="50" y="70" width="1100" height="60" class="navbar" />
  <text x="120" y="110" class="text subtitle navbar-text">스마트 주차 가이드</text>
  
  <!-- 네비게이션 메뉴 -->
  <text x="500" y="110" class="text label navbar-text">홈</text>
  <text x="600" y="110" class="text label navbar-text">검색</text>
  <text x="700" y="110" class="text label navbar-text">대시보드</text>
  <text x="830" y="110" class="text label navbar-text">커뮤니티</text>
  
  <!-- 로그인 영역 - 사용자 로그인 상태 -->
  <text x="1050" y="110" class="text label navbar-text">사용자님 ▼</text>
  
  <!-- 좌측 사이드바 메뉴 -->
  <rect x="50" y="130" width="250" height="570" class="sidebar" />
  
  <rect x="50" y="130" width="250" height="60" class="section" />
  <text x="70" y="168" class="text label">마이페이지</text>
  
  <rect x="50" y="190" width="250" height="60" class="section" />
  <text x="70" y="228" class="text label">즐겨찾기</text>
  
  <rect x="50" y="250" width="250" height="60" class="section" />
  <text x="70" y="288" class="text label">최근 이용 기록</text>
  
  <rect x="50" y="310" width="250" height="60" class="section highlight" />
  <text x="70" y="348" class="text label">알림 설정</text>
  
  <rect x="50" y="370" width="250" height="60" class="section" />
  <text x="70" y="408" class="text label">내가 쓴 리뷰</text>
  
  <rect x="50" y="430" width="250" height="60" class="section" />
  <text x="70" y="468" class="text label">내가 쓴 글</text>
  
  <rect x="50" y="490" width="250" height="60" class="section" />
  <text x="70" y="528" class="text label">설정</text>
  
  <!-- 메인 콘텐츠 영역 -->
  <rect x="300" y="130" width="850" height="570" class="section" />
  <text x="340" y="170" class="text title">알림 설정</text>
  <text x="340" y="200" class="text small">주차장 상태에 따른 알림을 설정할 수 있습니다.</text>
  
  <!-- 알림 기본 설정 -->
  <rect x="340" y="230" width="770" height="120" class="section" />
  <text x="370" y="260" class="text subtitle">기본 알림 설정</text>
  
  <text x="370" y="290" class="text label">브라우저 알림</text>
  <rect x="600" y="280" width="50" height="24" class="switch-track-active" />
  <circle cx="638" cy="292" r="10" class="switch-thumb" />
  <text x="670" y="290" class="text small">활성화됨</text>
  
  <text x="370" y="320" class="text label">이메일 알림</text>
  <rect x="600" y="310" width="50" height="24" class="switch-track" />
  <circle cx="613" cy="322" r="10" class="switch-thumb" />
  <text x="670" y="320" class="text small">비활성화</text>
  
  <!-- 알림 설정 현황 영역 -->
  <rect x="340" y="360" width="770" height="60" class="section gray-bg" />
  <text x="370" y="395" class="text label">현재 설정된 알림: 3개</text>
  <rect x="970" y="370" width="120" height="40" class="button" />
  <text x="1030" y="395" text-anchor="middle" class="text label" fill="white">새 알림 추가</text>
  
  <!-- 알림 목록 헤더 -->
  <rect x="340" y="420" width="770" height="40" class="section gray-bg" />
  <text x="370" y="445" class="text label">주차장</text>
  <text x="550" y="445" class="text label">요일</text>
  <text x="650" y="445" class="text label">시간</text>
  <text x="750" y="445" class="text label">최소 가용 공간</text>
  <text x="880" y="445" class="text label">상태</text>
  <text x="990" y="445" class="text label">관리</text>
  
  <!-- 알림 설정 아이템 1 -->
  <rect x="340" y="460" width="770" height="70" class="list-item" />
  <text x="370" y="490" class="text label">서울시청 지하 주차장</text>
  <text x="550" y="490" class="text small">월-금</text>
  <text x="650" y="490" class="text small">18:00-21:00</text>
  <text x="750" y="490" class="text small">5대 이상</text>
  <text x="880" y="490" class="text small">활성화됨</text>
  
  <rect x="970" y="475" width="60" height="30" class="button" />
  <text x="1000" y="495" text-anchor="middle" class="text small" fill="white">수정</text>
  <rect x="1040" y="475" width="60" height="30" class="cancel-button" />
  <text x="1070" y="495" text-anchor="middle" class="text small">삭제</text>
  
  <!-- 알림 설정 아이템 2 -->
  <rect x="340" y="530" width="770" height="70" class="list-item" />
  <text x="370" y="560" class="text label">강남역 지하 주차장</text>
  <text x="550" y="560" class="text small">토-일</text>
  <text x="650" y="560" class="text small">13:00-17:00</text>
  <text x="750" y="560" class="text small">10대 이상</text>
  <text x="880" y="560" class="text small">활성화됨</text>
  
  <rect x="970" y="545" width="60" height="30" class="button" />
  <text x="1000" y="565" text-anchor="middle" class="text small" fill="white">수정</text>
  <rect x="1040" y="545" width="60" height="30" class="cancel-button" />
  <text x="1070" y="565" text-anchor="middle" class="text small">삭제</text>
  
  <!-- 알림 설정 아이템 3 -->
  <rect x="340" y="600" width="770" height="70" class="list-item" />
  <text x="370" y="630" class="text label">명동 공영주차장</text>
  <text x="550" y="630" class="text small">월-일</text>
  <text x="650" y="630" class="text small">10:00-12:00</text>
  <text x="750" y="630" class="text small">3대 이상</text>
  <text x="880" y="630" class="text small">비활성화</text>
  
  <rect x="970" y="615" width="60" height="30" class="button" />
  <text x="1000" y="635" text-anchor="middle" class="text small" fill="white">수정</text>
  <rect x="1040" y="615" width="60" height="30" class="cancel-button" />
  <text x="1070" y="635" text-anchor="middle" class="text small">삭제</text>
  
  <!-- 하단 알림 정보 -->
  <rect x="340" y="680" width="770" height="20" class="section" />
  <text x="350" y="695" class="text small">※ 알림은 해당 시간에 최소 가용 공간이 충족될 때 브라우저에 표시됩니다. 브라우저 알림 설정이 켜져 있어야 합니다.</text>
  
  <!-- 하단 푸터 -->
  <rect x="50" y="700" width="1100" height="40" class="footer" />
  <text x="120" y="725" class="text small">© 2023 스마트 주차 가이드. All rights reserved.</text>
  <text x="950" y="725" class="text small">이용약관 | 개인정보처리방침 | 문의하기</text>
</svg>