<svg xmlns="http://www.w3.org/2000/svg" viewBox="0 0 1200 2000">
  <!-- 스타일 정의 -->
  <style>
    .frame { fill: #f8f9fa; stroke: #333; stroke-width: 2; }
    .header { fill: #e9ecef; stroke: #333; stroke-width: 1; }
    .footer { fill: #e9ecef; stroke: #333; stroke-width: 1; }
    .section { fill: #ffffff; stroke: #ddd; stroke-width: 1; }
    .button { fill: #4dabf7; stroke: #339af0; stroke-width: 1; rx: 5; ry: 5; }
    .search { fill: #ffffff; stroke: #333; stroke-width: 1; rx: 5; ry: 5; }
    .marker { fill: #ff6b6b; stroke: #fa5252; stroke-width: 1; }
    .list-item { fill: #ffffff; stroke: #ddd; stroke-width: 1; }
    .text { font-family: Arial, sans-serif; }
    .title { font-size: 20px; font-weight: bold; }
    .subtitle { font-size: 16px; }
    .label { font-size: 14px; }
    .small { font-size: 12px; }
    .icon { font-size: 18px; font-family: "FontAwesome", Arial; }
    .map { fill: #e9ecef; stroke: #ced4da; stroke-width: 1; }
    .rating { fill: #ffd43b; stroke: #fab005; stroke-width: 1; }
    .gray-bg { fill: #f1f3f5; }
    .highlight { fill: #d0ebff; }
    .chart { fill: #4dabf7; stroke: #339af0; stroke-width: 1; }
    .navbar { fill: #343a40; stroke: none; }
    .navbar-text { fill: #ffffff; }
    .sidebar { fill: #f8f9fa; stroke: #dee2e6; stroke-width: 1; }
  </style>

  <!-- 페이지 제목 -->
  <text x="600" y="40" text-anchor="middle" class="text title">스마트 주차 가이드 데스크톱 와이어프레임 (1-3)</text>

  <!-- 1. 홈 페이지 -->
  <g transform="translate(0, 80)">
    <!-- 프레임 -->
    <rect x="50" y="0" width="1100" height="600" class="frame" />
    <text x="600" y="30" text-anchor="middle" class="text title">1. 홈페이지 (home.jsp)</text>
    
    <!-- 상단 네비게이션 바 -->
    <rect x="50" y="60" width="1100" height="60" class="navbar" />
    <text x="120" y="100" class="text subtitle navbar-text">스마트 주차 가이드</text>
    
    <!-- 네비게이션 메뉴 -->
    <text x="500" y="100" class="text label navbar-text">홈</text>
    <text x="600" y="100" class="text label navbar-text">검색</text>
    <text x="700" y="100" class="text label navbar-text">대시보드</text>
    <text x="830" y="100" class="text label navbar-text">커뮤니티</text>
    
    <!-- 로그인/회원가입 영역 -->
    <text x="1000" y="100" class="text label navbar-text">로그인</text>
    <text x="1080" y="100" class="text label navbar-text">회원가입</text>
    
    <!-- 메인 콘텐츠 영역 -->
    <rect x="50" y="120" width="1100" height="480" fill="none" />
    
    <!-- 메인 배너 및 검색 영역 -->
    <rect x="100" y="150" width="1000" height="200" class="section" />
    <text x="600" y="210" text-anchor="middle" class="text title">지금 가까운 주차장을 찾아보세요</text>
    
    <!-- 검색 영역 -->
    <rect x="300" y="240" width="500" height="50" class="search" />
    <text x="340" y="274" class="text label">주소 또는 장소명으로 주차장 검색</text>
    <rect x="800" y="240" width="50" height="50" class="button" />
    <text x="825" y="274" class="text icon">🔍</text>
    
    <rect x="380" y="300" width="340" height="40" class="button" />
    <text x="550" y="325" text-anchor="middle" class="text label" fill="white">내 주변 주차장 찾기</text>
    <text x="400" y="325" class="text icon">📍</text>
    
    <!-- 콘텐츠 섹션 - 좌측 추천 주차장 -->
    <rect x="100" y="380" width="530" height="40" class="section gray-bg" />
    <text x="130" y="405" class="text subtitle">추천 주차장</text>
    
    <!-- 추천 주차장 목록 -->
    <rect x="100" y="420" width="530" height="180" class="section" />
    
    <!-- 추천 주차장 아이템 1 -->
    <rect x="110" y="430" width="510" height="80" class="list-item" />
    <text x="130" y="460" class="text label">서울시청 지하 주차장</text>
    <text x="130" y="485" class="text small">서울특별시 중구 세종대로 110</text>
    <text x="350" y="485" class="text small">💰 시간당 4,000원</text>
    <text x="500" y="485" class="text small">🚗 남은 자리: 35/120</text>
    <rect x="540" y="450" width="60" height="30" class="button" />
    <text x="570" y="470" text-anchor="middle" class="text small" fill="white">상세</text>
    
    <!-- 추천 주차장 아이템 2 -->
    <rect x="110" y="520" width="510" height="80" class="list-item" />
    <text x="130" y="550" class="text label">명동 공영주차장</text>
    <text x="130" y="575" class="text small">서울특별시 중구 남대문로 지하</text>
    <text x="350" y="575" class="text small">💰 시간당 3,000원</text>
    <text x="500" y="575" class="text small">🚗 남은 자리: 12/80</text>
    <rect x="540" y="540" width="60" height="30" class="button" />
    <text x="570" y="560" text-anchor="middle" class="text small" fill="white">상세</text>
    
    <!-- 콘텐츠 섹션 - 우측 공지사항/통계 -->
    <rect x="650" y="380" width="450" height="220" class="section" />
    <text x="680" y="405" class="text subtitle">실시간 주차 현황</text>
    
    <!-- 간단한 통계 정보 -->
    <text x="680" y="440" class="text small">• 서울시 전체 주차장: 350개</text>
    <text x="680" y="465" class="text small">• 현재 이용 가능한 주차장: 328개</text>
    <text x="680" y="490" class="text small">• 현재 만차 주차장: 22개</text>
    <text x="680" y="515" class="text small">• 총 주차 가능 대수: 62,870대</text>
    <text x="680" y="540" class="text small">• 현재 이용 가능 대수: 23,456대</text>
    <text x="680" y="565" class="text small">• 현재 이용률: 62.7%</text>
    
    <!-- 하단 푸터 -->
    <rect x="50" y="600" width="1100" height="50" class="footer" />
    <text x="120" y="630" class="text small">© 2023 스마트 주차 가이드. All rights reserved.</text>
    <text x="950" y="630" class="text small">이용약관 | 개인정보처리방침 | 문의하기</text>
  </g>

  <!-- 2. 지도 기반 주차장 검색 -->
  <g transform="translate(0, 730)">
    <!-- 프레임 -->
    <rect x="50" y="0" width="1100" height="600" class="frame" />
    <text x="600" y="30" text-anchor="middle" class="text title">2. 지도 기반 검색 (mapSearch.jsp)</text>
    
    <!-- 상단 네비게이션 바 -->
    <rect x="50" y="60" width="1100" height="60" class="navbar" />
    <text x="120" y="100" class="text subtitle navbar-text">스마트 주차 가이드</text>
    
    <!-- 네비게이션 메뉴 -->
    <text x="500" y="100" class="text label navbar-text">홈</text>
    <text x="600" y="100" class="text label navbar-text">검색</text>
    <text x="700" y="100" class="text label navbar-text">대시보드</text>
    <text x="830" y="100" class="text label navbar-text">커뮤니티</text>
    
    <!-- 로그인/회원가입 영역 -->
    <text x="1000" y="100" class="text label navbar-text">로그인</text>
    <text x="1080" y="100" class="text label navbar-text">회원가입</text>
    
    <!-- 검색/필터 영역 -->
    <rect x="50" y="120" width="1100" height="60" class="section" />
    <rect x="100" y="130" width="500" height="40" class="search" />
    <text x="130" y="155" class="text label">지역, 주소 또는 장소명으로 검색</text>
    <rect x="600" y="130" width="60" height="40" class="button" />
    <text x="630" y="155" class="text icon">🔍</text>
    
    <!-- 필터 옵션 -->
    <text x="700" y="155" class="text label">정렬: </text>
    <rect x="750" y="130" width="100" height="40" class="search" />
    <text x="770" y="155" class="text small">거리순</text>
    
    <text x="890" y="155" class="text label">필터: </text>
    <rect x="940" y="130" width="180" height="40" class="search" />
    <text x="960" y="155" class="text small">요금, 공간 크기, 운영시간</text>
    
    <!-- 좌측 주차장 목록 영역 -->
    <rect x="50" y="180" width="350" height="420" class="section" />
    <rect x="50" y="180" width="350" height="50" class="section gray-bg" />
    <text x="80" y="210" class="text subtitle">검색 결과 (12)</text>
    
    <!-- 주차장 목록 아이템들 -->
    <rect x="60" y="240" width="330" height="80" class="list-item highlight" />
    <text x="80" y="270" class="text label">서울시청 지하 주차장</text>
    <text x="80" y="290" class="text small">서울특별시 중구 세종대로 110</text>
    <text x="80" y="310" class="text small">🚗 35/120 | 💰 4,000원/시간 | 🚶 350m</text>
    
    <rect x="60" y="330" width="330" height="80" class="list-item" />
    <text x="80" y="360" class="text label">명동 공영주차장</text>
    <text x="80" y="380" class="text small">서울특별시 중구 남대문로 지하</text>
    <text x="80" y="400" class="text small">🚗 12/80 | 💰 3,000원/시간 | 🚶 450m</text>
    
    <rect x="60" y="420" width="330" height="80" class="list-item" />
    <text x="80" y="450" class="text label">을지로입구역 주변 주차장</text>
    <text x="80" y="470" class="text small">서울특별시 중구 을지로 42</text>
    <text x="80" y="490" class="text small">🚗 25/90 | 💰 5,000원/시간 | 🚶 520m</text>
    
    <rect x="60" y="510" width="330" height="80" class="list-item" />
    <text x="80" y="540" class="text label">청계광장 지하 주차장</text>
    <text x="80" y="560" class="text small">서울특별시 종로구 청계천로 41</text>
    <text x="80" y="580" class="text small">🚗 40/150 | 💰 3,500원/시간 | 🚶 680m</text>
    
    <!-- 지도 영역 (카카오맵) -->
    <rect x="400" y="180" width="750" height="420" class="map" />
    <circle cx="570" cy="280" r="10" class="marker" />
    <text x="570" y="280" class="text small" text-anchor="middle">1</text>
    
    <circle cx="650" cy="350" r="10" class="marker" />
    <text x="650" y="350" class="text small" text-anchor="middle">2</text>
    
    <circle cx="820" cy="280" r="10" class="marker" />
    <text x="820" y="280" class="text small" text-anchor="middle">3</text>
    
    <circle cx="750" cy="400" r="10" class="marker" />
    <text x="750" y="400" class="text small" text-anchor="middle">4</text>
    
    <circle cx="900" cy="500" r="10" class="marker" />
    <text x="900" y="500" class="text small" text-anchor="middle">5</text>
    
    <!-- 하단 푸터 -->
    <rect x="50" y="600" width="1100" height="50" class="footer" />
    <text x="120" y="630" class="text small">© 2023 스마트 주차 가이드. All rights reserved.</text>
    <text x="950" y="630" class="text small">이용약관 | 개인정보처리방침 | 문의하기</text>
  </g>

  <!-- 3. 주차장 상세 정보 -->
  <g transform="translate(0, 1380)">
    <!-- 프레임 -->
    <rect x="50" y="0" width="1100" height="600" class="frame" />
    <text x="600" y="30" text-anchor="middle" class="text title">3. 주차장 상세 정보 (detail.jsp)</text>
    
    <!-- 상단 네비게이션 바 -->
    <rect x="50" y="60" width="1100" height="60" class="navbar" />
    <text x="120" y="100" class="text subtitle navbar-text">스마트 주차 가이드</text>
    
    <!-- 네비게이션 메뉴 -->
    <text x="500" y="100" class="text label navbar-text">홈</text>
    <text x="600" y="100" class="text label navbar-text">검색</text>
    <text x="700" y="100" class="text label navbar-text">대시보드</text>
    <text x="830" y="100" class="text label navbar-text">커뮤니티</text>
    
    <!-- 로그인/회원가입 영역 -->
    <text x="1000" y="100" class="text label navbar-text">로그인</text>
    <text x="1080" y="100" class="text label navbar-text">회원가입</text>
    
    <!-- 주차장 기본 정보 헤더 -->
    <rect x="50" y="120" width="1100" height="100" class="section" />
    <text x="100" y="150" class="text title">서울시청 지하 주차장</text>
    <text x="100" y="180" class="text small">서울특별시 중구 세종대로 110 | 📞 02-123-4567</text>
    <text x="100" y="205" class="text small">🌟 4.5/5 (48건의 리뷰)</text>
    
    <!-- 액션 버튼 영역 -->
    <rect x="700" y="140" width="120" height="40" class="button" />
    <text x="760" y="165" text-anchor="middle" class="text label" fill="white">길 안내</text>
    
    <rect x="840" y="140" width="120" height="40" class="button" />
    <text x="900" y="165" text-anchor="middle" class="text label" fill="white">즐겨찾기</text>
    
    <rect x="980" y="140" width="120" height="40" class="button" />
    <text x="1040" y="165" text-anchor="middle" class="text label" fill="white">리뷰 작성</text>
    
    <!-- 콘텐츠 탭 메뉴 -->
    <rect x="50" y="220" width="275" height="50" class="section highlight" />
    <text x="187" y="250" text-anchor="middle" class="text label">기본 정보</text>
    
    <rect x="325" y="220" width="275" height="50" class="section" />
    <text x="462" y="250" text-anchor="middle" class="text label">리뷰 (48)</text>
    
    <rect x="600" y="220" width="275" height="50" class="section" />
    <text x="737" y="250" text-anchor="middle" class="text label">시설 안내</text>
    
    <rect x="875" y="220" width="275" height="50" class="section" />
    <text x="1012" y="250" text-anchor="middle" class="text label">주변 정보</text>
    
    <!-- 좌측 주차장 정보 영역 -->
    <rect x="50" y="270" width="650" height="330" class="section" />
    <text x="80" y="300" class="text subtitle">운영 정보</text>
    <text x="80" y="330" class="text small">• 운영시간: 24시간</text>
    <text x="80" y="355" class="text small">• 요금: 시간당 4,000원 (최대 30,000원)</text>
    <text x="80" y="380" class="text small">• 총 주차 가능 대수: 120대</text>
    <text x="80" y="405" class="text small">• 현재 남은 자리: 35대</text>
    <text x="80" y="430" class="text small">• 결제 방법: 현금, 신용카드, 교통카드</text>
    <text x="80" y="455" class="text small">• 최대 주차 가능 높이: 2.3m</text>
    <text x="80" y="480" class="text small">• 장애인 주차구역: 8대</text>
    
    <text x="80" y="520" class="text subtitle">혼잡도 정보</text>
    
    <!-- 간단한 차트 표현 -->
    <rect x="80" y="540" width="580" height="40" fill="none" stroke="#ddd" />
    <rect x="90" y="540" width="83" height="40" fill="#74c0fc" />
    <rect x="173" y="540" width="83" height="40" fill="#4dabf7" />
    <rect x="256" y="540" width="83" height="40" fill="#339af0" />
    <rect x="339" y="540" width="83" height="40" fill="#4dabf7" />
    <rect x="422" y="540" width="83" height="40" fill="#74c0fc" />
    <rect x="505" y="540" width="83" height="40" fill="#a5d8ff" />
    <rect x="588" y="540" width="72" height="40" fill="#a5d8ff" />
    
    <text x="131" y="565" class="text small" text-anchor="middle">오전</text>
    <text x="214" y="565" class="text small" text-anchor="middle">오후</text>
    <text x="297" y="565" class="text small" text-anchor="middle">저녁</text>
    <text x="380" y="565" class="text small" text-anchor="middle">밤</text>
    <text x="463" y="565" class="text small" text-anchor="middle">심야</text>
    <text x="546" y="565" class="text small" text-anchor="middle">새벽</text>
    <text x="624" y="565" class="text small" text-anchor="middle">현재</text>
    
    <!-- 우측 지도 및 위치 정보 -->
    <rect x="720" y="270" width="430" height="330" class="section" />
    <rect x="740" y="290" width="390" height="220" class="map" />
    <circle cx="935" cy="400" r="10" class="marker" />
    
    <text x="760" y="540" class="text small">• 주소: 서울특별시 중구 세종대로 110</text>
    <text x="760" y="565" class="text small">• 인근 지하철: 시청역 (1호선, 2호선) 도보 3분</text>
    <text x="760" y="590" class="text small">• 인근 버스: 101, 150, 402, 501, 506번</text>
    
    <!-- 하단 푸터 -->
    <rect x="50" y="600" width="1100" height="50" class="footer" />
    <text x="120" y="630" class="text small">© 2023 스마트 주차 가이드. All rights reserved.</text>
    <text x="950" y="630" class="text small">이용약관 | 개인정보처리방침 | 문의하기</text>
  </g>
</svg>